<?xml version="1.0" encoding="UTF-8"?>
<svg version="1.1" xmlns="http://www.w3.org/2000/svg" width="1024" height="1024">
<path d="M0 0 C1.09682098 -0.00067474 2.19364197 -0.00134949 3.32369995 -0.00204468 C23.09968143 0.01714294 42.61627199 0.87205417 62.25 3.25 C63.27562042 3.37375 63.27562042 3.37375 64.32196045 3.5 C96.21073569 7.40754676 127.68835517 14.34881917 158.25 24.25 C159.29704102 24.58580078 160.34408203 24.92160156 161.42285156 25.26757812 C212.30516621 41.7437562 260.20979408 66.51849126 303.25 98.25 C304.2083374 98.95141113 304.2083374 98.95141113 305.18603516 99.66699219 C313.93549148 106.08058254 322.40255412 112.72070968 330.59960938 119.82617188 C332.36428681 121.34859773 334.14171295 122.85509147 335.921875 124.359375 C341.36552921 128.96933571 346.73957707 133.55075532 351.6953125 138.69140625 C353.39162726 140.3919831 355.17306297 141.940867 357 143.5 C364.31162189 149.81780921 371.11335761 156.7522015 377.3828125 164.1015625 C379.2779838 166.28219893 381.22969074 168.40412481 383.1953125 170.52124023 C388.80469627 176.56837817 394.11247986 182.79315071 399.25 189.25 C399.8677832 190.01836182 399.8677832 190.01836182 400.49804688 190.80224609 C417.08916049 211.44134194 432.00749739 233.31728277 445.25 256.25 C445.62656738 256.9001709 446.00313477 257.5503418 446.39111328 258.22021484 C449.43841545 263.51343062 452.371167 268.86346922 455.25 274.25 C455.73452637 275.15492188 456.21905273 276.05984375 456.71826172 276.9921875 C485.92405294 332.0995673 503.50101366 392.96773553 510.5625 454.8125 C510.68473938 455.88233627 510.68473938 455.88233627 510.80944824 456.9737854 C512.83541398 474.99802966 513.48990365 492.87328236 513.5 511 C513.50101212 512.64523148 513.50101212 512.64523148 513.50204468 514.32369995 C513.48285706 534.09968143 512.62794583 553.61627199 510.25 573.25 C510.1675 573.93374695 510.085 574.6174939 510 575.32196045 C506.09245324 607.21073569 499.15118083 638.68835517 489.25 669.25 C488.91419922 670.29704102 488.57839844 671.34408203 488.23242188 672.42285156 C471.7562438 723.30516621 446.98150874 771.20979408 415.25 814.25 C414.78239258 814.8888916 414.31478516 815.5277832 413.83300781 816.18603516 C407.41941746 824.93549148 400.77929032 833.40255412 393.67382812 841.59960938 C392.15140227 843.36428681 390.64490853 845.14171295 389.140625 846.921875 C384.53066429 852.36552921 379.94924468 857.73957707 374.80859375 862.6953125 C373.1080169 864.39162726 371.559133 866.17306297 370 868 C363.68219079 875.31162189 356.7477985 882.11335761 349.3984375 888.3828125 C347.21780107 890.2779838 345.09587519 892.22969074 342.97875977 894.1953125 C336.93162183 899.80469627 330.70684929 905.11247986 324.25 910.25 C323.73775879 910.66185547 323.22551758 911.07371094 322.69775391 911.49804688 C302.05865806 928.08916049 280.18271723 943.00749739 257.25 956.25 C256.27474365 956.81485107 256.27474365 956.81485107 255.27978516 957.39111328 C249.98656938 960.43841545 244.63653078 963.371167 239.25 966.25 C238.34507812 966.73452637 237.44015625 967.21905273 236.5078125 967.71826172 C181.4004327 996.92405294 120.53226447 1014.50101366 58.6875 1021.5625 C57.61766373 1021.68473938 57.61766373 1021.68473938 56.5262146 1021.80944824 C38.50197034 1023.83541398 20.62671764 1024.48990365 2.5 1024.5 C1.40317902 1024.50067474 0.30635803 1024.50134949 -0.82369995 1024.50204468 C-20.59968143 1024.48285706 -40.11627199 1023.62794583 -59.75 1021.25 C-60.43374695 1021.1675 -61.1174939 1021.085 -61.82196045 1021 C-93.71073569 1017.09245324 -125.18835517 1010.15118083 -155.75 1000.25 C-157.32056152 999.74629883 -157.32056152 999.74629883 -158.92285156 999.23242188 C-209.80516621 982.7562438 -257.70979408 957.98150874 -300.75 926.25 C-301.3888916 925.78239258 -302.0277832 925.31478516 -302.68603516 924.83300781 C-311.43549148 918.41941746 -319.90255412 911.77929032 -328.09960938 904.67382812 C-329.86428681 903.15140227 -331.64171295 901.64490853 -333.421875 900.140625 C-338.86552921 895.53066429 -344.23957707 890.94924468 -349.1953125 885.80859375 C-350.89162726 884.1080169 -352.67306297 882.559133 -354.5 881 C-361.81162189 874.68219079 -368.61335761 867.7477985 -374.8828125 860.3984375 C-376.7779838 858.21780107 -378.72969074 856.09587519 -380.6953125 853.97875977 C-386.30469627 847.93162183 -391.61247986 841.70684929 -396.75 835.25 C-397.16185547 834.73775879 -397.57371094 834.22551758 -397.99804688 833.69775391 C-414.58916049 813.05865806 -429.50749739 791.18271723 -442.75 768.25 C-443.12656738 767.5998291 -443.50313477 766.9496582 -443.89111328 766.27978516 C-446.93841545 760.98656938 -449.871167 755.63653078 -452.75 750.25 C-453.47678955 748.89261719 -453.47678955 748.89261719 -454.21826172 747.5078125 C-483.42405294 692.4004327 -501.00101366 631.53226447 -508.0625 569.6875 C-508.14399292 568.97427582 -508.22548584 568.26105164 -508.30944824 567.5262146 C-510.33541398 549.50197034 -510.98990365 531.62671764 -511 513.5 C-511.00067474 512.40317902 -511.00134949 511.30635803 -511.00204468 510.17630005 C-510.98285706 490.40031857 -510.12794583 470.88372801 -507.75 451.25 C-507.62625 450.22437958 -507.62625 450.22437958 -507.5 449.17803955 C-503.59245324 417.28926431 -496.65118083 385.81164483 -486.75 355.25 C-486.41419922 354.20295898 -486.07839844 353.15591797 -485.73242188 352.07714844 C-469.2528694 301.18441284 -444.46803628 253.3105119 -412.75 210.25 C-412.28770996 209.61642578 -411.82541992 208.98285156 -411.34912109 208.33007812 C-405.08014754 199.74817777 -398.55395578 191.50387656 -391.5625 183.5 C-388.98186404 180.54171 -386.51503867 177.50317333 -384.0625 174.4375 C-380.56844411 170.12837502 -376.83068495 166.22407241 -372.859375 162.35546875 C-370.92854196 160.42821133 -369.14327187 158.45061436 -367.375 156.375 C-361.11327113 149.09628501 -354.20022698 142.34606097 -346.8984375 136.1171875 C-344.71780107 134.2220162 -342.59587519 132.27030926 -340.47875977 130.3046875 C-334.43162183 124.69530373 -328.20684929 119.38752014 -321.75 114.25 C-321.23775879 113.83814453 -320.72551758 113.42628906 -320.19775391 113.00195312 C-299.55865806 96.41083951 -277.68271723 81.49250261 -254.75 68.25 C-254.0998291 67.87343262 -253.4496582 67.49686523 -252.77978516 67.10888672 C-247.48656938 64.06158455 -242.13653078 61.128833 -236.75 58.25 C-235.39261719 57.52321045 -235.39261719 57.52321045 -234.0078125 56.78173828 C-178.9004327 27.57594706 -118.03226447 9.99898634 -56.1875 2.9375 C-55.47427582 2.85600708 -54.76105164 2.77451416 -54.0262146 2.69055176 C-36.00197034 0.66458602 -18.12671764 0.01009635 0 0 Z " fill="#2563EB" transform="translate(510.75,-0.25)"/>
<path d="M0 0 C0.9192419 0.00291284 1.83848381 0.00582568 2.78558153 0.00882679 C3.75423786 0.00797237 4.7228942 0.00711794 5.72090375 0.00623763 C8.99304593 0.00457988 12.26513774 0.010109 15.53727525 0.01555592 C17.87236842 0.01583775 20.20746168 0.01568013 22.5425548 0.01511341 C28.90387065 0.01482529 35.26516783 0.02072437 41.62647933 0.02768737 C47.5942821 0.03328787 53.56208411 0.03430919 59.52988916 0.03533924 C71.35348103 0.03753007 83.17706603 0.04419099 95.00065416 0.05364186 C106.48893506 0.06281518 117.97721409 0.0698964 129.46549791 0.07414967 C130.52698075 0.07454375 130.52698075 0.07454375 131.60990769 0.0749458 C135.15986194 0.0762508 138.70981619 0.07751452 142.25977045 0.0787577 C171.72914898 0.08913128 201.19851767 0.10757009 230.66789049 0.12908131 C230.66789049 23.22908131 230.66789049 46.32908131 230.66789049 70.12908131 C253.76789049 70.12908131 276.86789049 70.12908131 300.66789049 70.12908131 C300.66789049 102.46908131 300.66789049 134.80908131 300.66789049 168.12908131 C268.32789049 168.12908131 235.98789049 168.12908131 202.66789049 168.12908131 C202.66789049 144.69908131 202.66789049 121.26908131 202.66789049 97.12908131 C142.60789049 97.12908131 82.54789049 97.12908131 20.66789049 97.12908131 C20.66789049 203.71908131 20.66789049 310.30908131 20.66789049 420.12908131 C80.72789049 420.12908131 140.78789049 420.12908131 202.66789049 420.12908131 C202.66789049 397.02908131 202.66789049 373.92908131 202.66789049 350.12908131 C235.00789049 350.12908131 267.34789049 350.12908131 300.66789049 350.12908131 C300.66789049 382.13908131 300.66789049 414.14908131 300.66789049 447.12908131 C277.56789049 447.12908131 254.46789049 447.12908131 230.66789049 447.12908131 C230.66789049 470.22908131 230.66789049 493.32908131 230.66789049 517.12908131 C152.12789049 517.12908131 73.58789049 517.12908131 -7.33210951 517.12908131 C-7.33210951 494.35908131 -7.33210951 471.58908131 -7.33210951 448.12908131 C-30.43210951 448.12908131 -53.53210951 448.12908131 -77.33210951 448.12908131 C-77.33210951 323.05908131 -77.33210951 197.98908131 -77.33210951 69.12908131 C-54.23210951 69.12908131 -31.13210951 69.12908131 -7.33210951 69.12908131 C-7.3717232 46.79520702 -7.3717232 46.79520702 -7.4221974 24.4613567 C-7.426714 20.14946705 -7.426714 20.14946705 -7.42755324 18.13321644 C-7.42909248 16.71992386 -7.43261702 15.30663261 -7.43768507 13.89334828 C-7.44496499 11.75714024 -7.44601685 9.62101271 -7.4456349 7.4847942 C-7.44785551 6.27900212 -7.45007612 5.07321003 -7.45236403 3.83087879 C-7.22524204 -1.27194504 -4.44284417 0.01068921 0 0 Z " fill="#FDFDFE" transform="translate(400.3321095108986,252.8709186911583)"/>
<path d="M0 0 C60.06 0 120.12 0 182 0 C182 23.43 182 46.86 182 71 C181.67 71 181.34 71 181 71 C181 48.56 181 26.12 181 3 C121.93 3 62.86 3 2 3 C2 107.94 2 212.88 2 321 C61.07 321 120.14 321 181 321 C181 298.23 181 275.46 181 252 C214 252 247 252 281 252 C281 284.67 281 317.34 281 351 C257.9 351 234.8 351 211 351 C211 374.1 211 397.2 211 421 C132.46 421 53.92 421 -27 421 C-27 420.67 -27 420.34 -27 420 C51.21 420 129.42 420 210 420 C210 396.9 210 373.8 210 350 C233.1 350 256.2 350 280 350 C280 317.99 280 285.98 280 253 C247.66 253 215.32 253 182 253 C182 276.1 182 299.2 182 323 C121.94 323 61.88 323 0 323 C0 216.41 0 109.82 0 0 Z " fill="#769DF2" transform="translate(421,350)"/>
</svg>
