<?xml version="1.0" encoding="UTF-8"?>
<svg version="1.1" xmlns="http://www.w3.org/2000/svg" width="1024" height="1024">
<path d="M0 0 C4.49350971 0.022788 8.98607095 0.00920925 13.47954845 -0.01376724 C92.13530003 -0.35395888 168.22854261 19.34380707 238.39355469 54.52148438 C239.30008789 54.97346191 240.20662109 55.42543945 241.140625 55.89111328 C274.93865587 72.83963151 307.15524749 94.31676186 335.74316406 119.09765625 C337.50784149 120.6200821 339.28526764 122.12657584 341.06542969 123.63085938 C346.5090839 128.24082009 351.88313176 132.82223969 356.83886719 137.96289062 C358.53518194 139.66346748 360.31661766 141.21235137 362.14355469 142.77148438 C369.45517658 149.08929358 376.2569123 156.02368588 382.52636719 163.37304688 C384.42153848 165.55368331 386.37324543 167.67560918 388.33886719 169.79272461 C393.94825096 175.83986254 399.25603455 182.06463508 404.39355469 188.52148438 C405.01133789 189.28984619 405.01133789 189.28984619 405.64160156 190.07373047 C422.23271518 210.71282631 437.15105208 232.58876714 450.39355469 255.52148438 C450.95840576 256.49674072 450.95840576 256.49674072 451.53466797 257.49169922 C454.58197014 262.784915 457.51472169 268.13495359 460.39355469 273.52148438 C460.87808105 274.42640625 461.36260742 275.33132813 461.86181641 276.26367188 C499.4059728 347.10441951 518.32402702 427.14276412 517.91503906 507.12792969 C517.89225106 511.6214394 517.90582982 516.11400064 517.9288063 520.60747814 C518.26899795 599.26322972 498.57123199 675.35647229 463.39355469 745.52148438 C462.94157715 746.42801758 462.48959961 747.33455078 462.02392578 748.26855469 C445.07540756 782.06658555 423.5982772 814.28317718 398.81738281 842.87109375 C397.29495696 844.63577118 395.78846322 846.41319733 394.28417969 848.19335938 C389.67421897 853.63701359 385.09279937 859.01106144 379.95214844 863.96679688 C378.25157158 865.66311163 376.70268769 867.44454735 375.14355469 869.27148438 C368.82574548 876.58310627 361.89135318 883.38484198 354.54199219 889.65429688 C352.36135576 891.54946817 350.23942988 893.50117512 348.12231445 895.46679688 C342.07517652 901.07618064 335.85040398 906.38396423 329.39355469 911.52148438 C328.88131348 911.93333984 328.36907227 912.34519531 327.84130859 912.76953125 C307.20221275 929.36064486 285.32627192 944.27898177 262.39355469 957.52148438 C261.41829834 958.08633545 261.41829834 958.08633545 260.42333984 958.66259766 C255.13012407 961.70989983 249.78008547 964.64265138 244.39355469 967.52148438 C243.48863281 968.00601074 242.58371094 968.49053711 241.65136719 968.98974609 C170.81061955 1006.53390249 90.77227495 1025.45195671 10.78710938 1025.04296875 C6.29359966 1025.02018075 1.80103842 1025.0337595 -2.69243908 1025.05673599 C-81.34819065 1025.39692763 -157.44143323 1005.69916168 -227.60644531 970.52148438 C-228.51297852 970.06950684 -229.41951172 969.6175293 -230.35351562 969.15185547 C-264.15154649 952.20333724 -296.36813811 930.72620689 -324.95605469 905.9453125 C-326.72073212 904.42288665 -328.49815827 902.91639291 -330.27832031 901.41210938 C-335.72197453 896.80214866 -341.09602238 892.22072906 -346.05175781 887.08007812 C-347.74807257 885.37950127 -349.52950829 883.83061738 -351.35644531 882.27148438 C-358.66806721 875.95367517 -365.46980292 869.01928287 -371.73925781 861.66992188 C-373.63442911 859.48928544 -375.58613606 857.36735957 -377.55175781 855.25024414 C-383.16114158 849.20310621 -388.46892517 842.97833367 -393.60644531 836.52148438 C-394.01830078 836.00924316 -394.43015625 835.49700195 -394.85449219 834.96923828 C-411.4456058 814.33014244 -426.3639427 792.45420161 -439.60644531 769.52148438 C-439.9830127 768.87131348 -440.35958008 768.22114258 -440.74755859 767.55126953 C-443.79486076 762.25805375 -446.72761231 756.90801516 -449.60644531 751.52148438 C-450.33323486 750.16410156 -450.33323486 750.16410156 -451.07470703 748.77929688 C-488.61886343 677.93854924 -507.53691765 597.90020463 -507.12792969 517.91503906 C-507.10514168 513.42152935 -507.11872044 508.92896811 -507.14169693 504.43549061 C-507.48188857 425.77973903 -487.78412261 349.68649646 -452.60644531 279.52148438 C-452.15446777 278.61495117 -451.70249023 277.70841797 -451.23681641 276.77441406 C-439.37571129 253.12149104 -425.17985426 230.88628951 -409.60644531 209.52148438 C-409.1369043 208.87630859 -408.66736328 208.23113281 -408.18359375 207.56640625 C-401.92192722 198.99692817 -395.40092589 190.76451364 -388.41894531 182.77148438 C-385.83830936 179.81319438 -383.37148398 176.77465771 -380.91894531 173.70898438 C-377.42488942 169.39985939 -373.68713026 165.49555678 -369.71582031 161.62695312 C-367.78498728 159.69969571 -365.99971718 157.72209874 -364.23144531 155.64648438 C-357.96971645 148.36776938 -351.05667229 141.61754535 -343.75488281 135.38867188 C-341.57424638 133.49350058 -339.45232051 131.54179363 -337.33520508 129.57617188 C-331.28806715 123.96678811 -325.06329461 118.65900452 -318.60644531 113.52148438 C-318.0942041 113.10962891 -317.58196289 112.69777344 -317.05419922 112.2734375 C-296.41510338 95.68232389 -274.53916255 80.76398698 -251.60644531 67.52148438 C-250.95627441 67.14491699 -250.30610352 66.76834961 -249.63623047 66.38037109 C-244.34301469 63.33306892 -238.99297609 60.40031737 -233.60644531 57.52148438 C-232.2490625 56.79469482 -232.2490625 56.79469482 -230.86425781 56.05322266 C-160.02351018 18.50906626 -79.98516557 -0.40898796 0 0 Z " fill="#020617" transform="translate(506.6064453125,-0.521484375)"/>
<path d="M0 0 C77.22 0 154.44 0 234 0 C234.33 22.11 234.66 44.22 235 67 C236.86025921 68.86025921 239.96029719 68.17372428 242.44750977 68.20532227 C243.13157111 68.21535499 243.81563246 68.22538771 244.52042294 68.23572445 C246.74404911 68.26721286 248.96769304 68.29192292 251.19140625 68.31640625 C252.56051224 68.33480018 253.92961237 68.35363633 255.29870605 68.3729248 C260.38656785 68.44148595 265.47454234 68.50146596 270.5625 68.5625 C287.6090625 68.7790625 287.6090625 68.7790625 305 69 C305 100.68 305 132.36 305 165 C273.32 165 241.64 165 209 165 C208.67 142.23 208.34 119.46 208 96 C184.417801 95.97745521 160.83561069 95.95902213 137.25340366 95.94818783 C126.30459267 95.94302431 115.35578883 95.93598054 104.40698242 95.92456055 C94.86767269 95.91461542 85.32836815 95.90814698 75.78905338 95.90591151 C70.73475977 95.90460411 65.68048097 95.90151642 60.62619209 95.89426994 C55.87471216 95.88751243 51.12325323 95.88538249 46.37176895 95.88689232 C44.62256316 95.88661587 42.8733567 95.88460916 41.12415504 95.88079453 C38.74664852 95.87586146 36.36922264 95.87700026 33.99171448 95.87974548 C33.29036568 95.87683264 32.58901688 95.8739198 31.86641508 95.87091869 C28.65480225 95.61002224 28.65480225 95.61002224 26 97 C25.90181232 98.70362619 25.87444413 100.41135979 25.87415886 102.11781311 C25.87024724 103.79190451 25.87024724 103.79190451 25.86625659 105.49981594 C25.86960268 107.36207868 25.86960268 107.36207868 25.87301636 109.26196289 C25.87145637 110.56884851 25.86989638 111.87573412 25.86828911 113.22222233 C25.86409123 116.8665446 25.86618854 120.51084089 25.86927533 124.15516329 C25.87152736 128.07885704 25.86805081 132.00254616 25.86529541 135.92623901 C25.86083659 143.61939765 25.86181467 151.31254657 25.86470805 159.0057056 C25.86696165 165.25519818 25.8672748 171.50468803 25.86618423 177.75418091 C25.86595439 179.08571798 25.86595439 179.08571798 25.86571989 180.4441548 C25.86540018 182.24718754 25.86507597 184.05022027 25.8647473 185.85325301 C25.86189218 202.78108389 25.86518003 219.70890937 25.87054767 236.63673937 C25.87501573 251.17807635 25.87423981 265.71940535 25.86962891 280.26074219 C25.86428371 297.12584153 25.86216688 313.99093612 25.86524117 330.85603619 C25.86555974 332.65263049 25.86587411 334.44922479 25.86618423 336.24581909 C25.86633851 337.12989868 25.86649279 338.01397826 25.86665174 338.92484814 C25.86751706 345.17061321 25.8660537 351.41637529 25.86370468 357.66213989 C25.86090708 365.2682121 25.86164409 372.87427399 25.86698543 380.48034501 C25.86962299 384.36494277 25.87062659 388.24952329 25.86733627 392.13412094 C25.86383137 396.33544151 25.86800137 400.5367181 25.87301636 404.73803711 C25.87078564 405.9795456 25.86855491 407.2210541 25.86625659 408.50018406 C25.86886434 409.61624499 25.87147209 410.73230593 25.87415886 411.88218689 C25.87432121 412.85334914 25.87448356 413.82451139 25.87465084 414.82510281 C25.75682264 416.97857232 25.75682264 416.97857232 27 418 C29.34027124 418.09762224 31.65098381 418.12997604 33.99171448 418.12025452 C35.10168058 418.12153615 35.10168058 418.12153615 36.23407024 418.12284368 C38.73232413 418.12450069 41.23051198 418.11897353 43.72875977 418.11352539 C45.51213581 418.11324354 47.29551197 418.11340121 49.07888794 418.1139679 C53.93612191 418.11425596 58.79333141 418.10835788 63.65055966 418.10139394 C68.72080948 418.09516179 73.79105981 418.09455671 78.86131287 418.09336853 C88.46963693 418.0902548 98.07794968 418.08204086 107.68626875 418.07201904 C118.62199528 418.06085919 129.55772234 418.05534778 140.49345315 418.05032361 C162.99564316 418.03985828 185.49781765 418.02151229 208 418 C208.33 394.9 208.66 371.8 209 348 C240.68 348 272.36 348 305 348 C305 380.01 305 412.02 305 445 C270.35 445.495 270.35 445.495 235 446 C234.67 468.44 234.34 490.88 234 514 C156.78 514 79.56 514 0 514 C-0.33 491.56 -0.66 469.12 -1 446 C-17.27028648 429.72971352 -46.99282786 444.33834077 -70 444 C-70 320.58 -70 197.16 -70 70 C-47.56 69.67 -25.12 69.34 -2 69 C14.27028648 52.72971352 -0.33834077 23.00717214 0 0 Z " fill="#FDFDFE" transform="translate(395,255)"/>
</svg>
